<svg width="500" height="500" viewBox="0 0 500 500" fill="none" xmlns="http://www.w3.org/2000/svg">
<g clip-path="url(#clip0_1736_3172)">
<path d="M250 500C388.071 500 500 388.071 500 250C500 111.929 388.071 0 250 0C111.929 0 0 111.929 0 250C0 388.071 111.929 500 250 500Z" fill="#5562EB"/>
<path d="M318.299 241.831C351.989 241.831 379.3 214.614 379.3 181.04C379.3 147.466 351.989 120.248 318.299 120.248C284.61 120.248 257.299 147.466 257.299 181.04C257.299 214.614 284.61 241.831 318.299 241.831Z" fill="#171D26"/>
<path d="M239.042 120H117V241.624H239.042V120Z" fill="#EE9AB2"/>
<path d="M318.296 267.564L350.148 323.715L382 379.906H318.296H254.635L286.445 323.715L318.296 267.564Z" fill="#FFC550"/>
<path d="M178 380.776C211.69 380.776 239.001 353.559 239.001 319.985C239.001 286.411 211.69 259.194 178 259.194C144.311 259.194 117 286.411 117 319.985C117 353.559 144.311 380.776 178 380.776Z" fill="#FAFAEE"/>
</g>
<defs>
<clipPath id="clip0_1736_3172">
<rect width="500" height="500" fill="white"/>
</clipPath>
</defs>
</svg>
